# xmcd
#
# Track frame offsets: 
#        150
#        13570
#        24047
#        43485
#        54275
#        63077
#        73387
#        86522
#        97680
#        113310
#        130977
#        144097
#        158967
#        169565
#
# Disc length: 2371 seconds
#
# Revision: 4
# Processed by: cddbd v1.5.2PL0 Copyright (c) Steve Scherf et al.
# Submitted via: ExactAudioCopy v1.0b1
#
DISCID=a309410e
DTITLE=Dixie Chicks - Thank Heavens For Dale Evans
DYEAR=1991
DGENRE=Country
TTITLE0=The Cowboy Lives Forever
TTITLE1=I Want To Be A Cowboy's Sweetheart
TTITLE2=Thunderheads
TTITLE3=Long Roads
TTITLE4=Who Will Be The Next One
TTITLE5=Brilliancy
TTITLE6=Thank Heavens For Dale Evans
TTITLE7=This Heart Of Mine
TTITLE8=Storm Out On The Sea
TTITLE9=West Texas Wind
TTITLE10=Rider
TTITLE11=Green River
TTITLE12=Salty
TTITLE13=Bring It On Home To Me
EXTD=
EXTT0=
EXTT1=
EXTT2=
EXTT3=
EXTT4=
EXTT5=
EXTT6=
EXTT7=
EXTT8=
EXTT9=
EXTT10=
EXTT11=
EXTT12=
EXTT13=
PLAYORDER=
